<svg height="480pt" viewBox="-63 0 479 480" width="480pt" xmlns="http://www.w3.org/2000/svg"><path d="m347.027344 112.40625c-3.265625-1.070312-6.851563.050781-8.925782 2.792969l-17.601562 23.480469-16-21.238282v-77.441406c-.027344-22.082031-17.917969-39.9726562-40-40h-224c-22.082031.0273438-39.972656 17.917969-40 40v400c.027344 22.082031 17.917969 39.972656 40 40h224c22.082031-.027344 39.972656-17.917969 40-40v-8h32c8.835938 0 16-7.164062 16-16v-296c0-3.445312-2.203125-6.503906-5.472656-7.59375zm-250.527344-96.40625h112v8c0 4.417969-3.582031 8-8 8h-96c-4.417969 0-8-3.582031-8-8zm192 424c0 13.253906-10.746094 24-24 24h-224c-13.253906 0-24-10.746094-24-24v-400c0-13.253906 10.746094-24 24-24h40v8c0 13.253906 10.746094 24 24 24h96c13.253906 0 24-10.746094 24-24v-8h40c13.253906 0 24 10.746094 24 24v77.222656l-16.089844 21.441406-17.597656-23.464843c-1.574219-1.914063-3.921875-3.019531-6.402344-3.019531-2.476562 0-4.824218 1.105468-6.398437 3.019531l-17.601563 23.464843-17.511718-23.464843c-1.507813-2.011719-3.878907-3.199219-6.398438-3.199219s-4.890625 1.1875-6.398438 3.199219l-17.601562 23.464843-17.601562-23.464843c-1.574219-1.914063-3.921876-3.019531-6.398438-3.019531s-4.824219 1.105468-6.398438 3.019531l-17.601562 23.464843-17.601562-23.464843c-2.066407-2.753907-5.660157-3.878907-8.929688-2.789063-3.265625 1.089844-5.46875 4.144532-5.46875 7.589844v296c0 8.835938 7.164062 16 16 16h176zm48-24h-224v-272l9.601562 12.800781c1.507813 2.011719 3.878907 3.199219 6.398438 3.199219s4.890625-1.1875 6.398438-3.199219l17.601562-23.464843 17.601562 23.464843c1.507813 2.011719 3.878907 3.199219 6.398438 3.199219s4.890625-1.1875 6.398438-3.199219l17.601562-23.464843 17.601562 23.464843c1.507813 2.011719 3.878907 3.199219 6.398438 3.199219s4.890625-1.1875 6.398438-3.199219l17.601562-23.464843 17.601562 23.464843c1.574219 1.914063 3.921876 3.019531 6.398438 3.019531s4.824219-1.105468 6.398438-3.019531l17.601562-23.472656 17.601562 23.472656c1.574219 1.910157 3.921876 3.015625 6.398438 3.015625s4.824219-1.105468 6.398438-3.015625l9.601562-12.800781zm0 0"/><path d="m96.5 64h16v16h-16zm0 0"/><path d="m128.5 64h16v16h-16zm0 0"/><path d="m160.5 64h16v16h-16zm0 0"/><path d="m192.5 64h16v16h-16zm0 0"/><path d="m144.5 184h32v16h-32zm0 0"/><path d="m192.5 184h112v16h-112zm0 0"/><path d="m144.5 216h32v16h-32zm0 0"/><path d="m192.5 216h112v16h-112zm0 0"/><path d="m240.5 280h-8v-16h-16v16h-8c-8.835938 0-16 7.164062-16 16v16c0 8.835938 7.164062 16 16 16h32v16h-32v-8h-16v8c0 8.835938 7.164062 16 16 16h8v16h16v-16h8c8.835938 0 16-7.164062 16-16v-16c0-8.835938-7.164062-16-16-16h-32v-16h32v8h16v-8c0-8.835938-7.164062-16-16-16zm0 0"/></svg>